<svg width="14" height="14" viewBox="0 0 14 14" fill="none" xmlns="http://www.w3.org/2000/svg">
<path d="M13.1122 12.2499C13.1122 13.2164 12.3287 14 11.3623 14C10.3958 14 9.6123 13.2164 9.6123 12.2499C9.6123 11.2836 10.3958 10.5 11.3623 10.5C12.3287 10.5 13.1122 11.2836 13.1122 12.2499Z" fill="#F85566"/>
<path d="M11.3623 13.1249C10.5489 13.1249 9.86998 12.5654 9.67439 11.8125C9.6376 11.9533 9.6123 12.0981 9.6123 12.2499C9.6123 13.215 10.3971 14 11.3623 14C12.3274 14 13.1122 13.215 13.1122 12.2499C13.1122 12.0981 13.0868 11.9533 13.0501 11.8125C12.8545 12.5654 12.1756 13.1249 11.3623 13.1249Z" fill="#C84F61"/>
<path d="M6.11268 12.2499C6.11268 13.2164 5.32923 14 4.36274 14C3.39624 14 2.61279 13.2164 2.61279 12.2499C2.61279 11.2836 3.39624 10.5 4.36274 10.5C5.32923 10.5 6.11268 11.2836 6.11268 12.2499Z" fill="#35C9FC"/>
<path d="M11.3628 9.62481C10.6392 9.62481 10.0503 9.036 10.0503 8.31229V1.31251C10.0503 0.588914 10.6392 0 11.3628 0C12.0864 0 12.6753 0.588914 12.6753 1.31251V8.31229C12.6753 9.036 12.0864 9.62481 11.3628 9.62481Z" fill="#F85566"/>
<path d="M11.3628 8.75001C10.6392 8.75001 10.0503 8.1611 10.0503 7.4375V8.31247C10.0503 9.03617 10.6392 9.62498 11.3628 9.62498C12.0864 9.62498 12.6753 9.03617 12.6753 8.31247V7.4375C12.6753 8.1611 12.0864 8.75001 11.3628 8.75001Z" fill="#C84F61"/>
<path d="M4.36269 9.62481C3.63909 9.62481 3.05028 9.036 3.05028 8.31229V6.56235C3.05028 5.83875 3.63909 5.24994 4.36269 5.24994H5.23766C5.72027 5.24994 6.11263 4.85747 6.11263 4.37486V3.93743C6.11263 3.21383 5.52382 2.62492 4.80023 2.62492C4.07663 2.62492 3.48771 3.21383 3.48771 3.93743C3.48771 4.66103 2.89891 5.24994 2.1752 5.24994C1.4516 5.24994 0.862793 4.66103 0.862793 3.93743C0.862793 1.7661 2.6289 0 4.80023 0C6.97145 0 8.73766 1.7661 8.73766 3.93743V4.37486C8.73766 6.15638 7.39889 7.63164 5.6752 7.84775V8.31229C5.6752 9.036 5.08629 9.62481 4.36269 9.62481Z" fill="#35C9FC"/>
<path d="M4.36274 13.1249C3.54942 13.1249 2.87047 12.5654 2.67487 11.8125C2.6382 11.9533 2.61279 12.0981 2.61279 12.2499C2.61279 13.215 3.39762 14 4.36274 14C5.32785 14 6.11268 13.215 6.11268 12.2499C6.11268 12.0981 6.08738 11.9533 6.0506 11.8125C5.855 12.5654 5.17605 13.1249 4.36274 13.1249Z" fill="#00ADFE"/>
<path d="M3.48771 3.93749C3.48771 3.21389 4.07662 2.62497 4.80022 2.62497C5.44154 2.62497 5.97486 3.08792 6.08818 3.69682C6.10306 3.63346 6.11263 3.56777 6.11263 3.49995V3.06251C6.11263 2.33891 5.52382 1.75 4.80022 1.75C4.07662 1.75 3.48771 2.33891 3.48771 3.06251C3.48771 3.78611 2.8989 4.37492 2.1752 4.37492C1.56237 4.37492 1.05042 3.95109 0.906483 3.38184C0.880758 3.56383 0.862793 3.74848 0.862793 3.93749C0.862793 4.66108 1.4516 5.25 2.1752 5.25C2.8989 5.25 3.48771 4.66108 3.48771 3.93749Z" fill="#00ADFE"/>
<path d="M5.67521 6.97294V7.43748C5.67521 8.16108 5.0863 8.74999 4.3627 8.74999C3.6391 8.74999 3.05029 8.16108 3.05029 7.43748V8.31245C3.05029 9.03615 3.6391 9.62496 4.3627 9.62496C5.0863 9.62496 5.67521 9.03615 5.67521 8.31245V7.84748C7.3989 7.6318 8.73767 6.15654 8.73767 4.3746V3.93759C8.73767 3.86669 8.73066 3.79759 8.72715 3.72754C8.61862 5.40541 7.32502 6.76639 5.67521 6.97294Z" fill="#00ADFE"/>
</svg>
