<svg width="28" height="22" viewBox="0 0 28 22" fill="none" xmlns="http://www.w3.org/2000/svg">
<path d="M14.5076 0.231445C14.5316 0.827085 14.5555 1.42273 14.5795 2.01837C14.1157 2.01837 13.8839 2.01837 13.4202 2.01837C13.4442 1.42273 13.4681 0.827085 13.492 0.231445C12.5516 0.231445 11.6113 0.231445 10.6709 0.231445C8.78055 7.41079 6.88985 14.5899 4.99951 21.7694C7.54193 21.7694 10.0843 21.7694 12.6267 21.7694C12.6506 21.1737 12.6745 20.5781 12.6985 19.9825C13.5661 19.9825 14.4337 19.9825 15.3012 19.9825C15.3253 20.5781 15.3491 21.1737 15.373 21.7694C17.9154 21.7694 20.4577 21.7694 23.0002 21.7694C21.1098 14.5901 19.2191 7.41085 17.3287 0.231445C16.3884 0.231445 15.4481 0.231445 14.5076 0.231445ZM13.3126 4.69389C13.7707 4.69389 14.2288 4.69364 14.687 4.69377C14.7535 6.35004 14.82 8.00643 14.8866 9.66264C14.2954 9.66264 13.7042 9.66264 13.113 9.66264C13.1797 8.00649 13.2461 6.35016 13.3126 4.69389ZM12.8059 17.3069C12.8724 15.6507 12.939 13.9944 13.0055 12.3382C13.6684 12.3382 14.3312 12.3381 14.994 12.3381C15.0606 13.9943 15.1272 15.6507 15.1936 17.3069C14.3978 17.3069 13.6018 17.3069 12.8059 17.3069Z" fill="#3F90DF"/>
<path d="M19.1782 0.231445C18.794 0.231445 18.6019 0.231445 18.2178 0.231445C20.6132 7.41079 23.008 14.5901 25.4036 21.7694C26.2691 21.7694 27.1346 21.7694 28.0001 21.7694C25.0596 14.5899 22.1189 7.41079 19.1782 0.231445Z" fill="#3F90DF"/>
<path d="M8.8219 0.231445C5.88121 7.41085 2.94045 14.5899 0 21.7694C0.865547 21.7694 1.73103 21.7694 2.59658 21.7694C4.99181 14.5901 7.38697 7.41085 9.78232 0.231445C9.39818 0.231445 9.20605 0.231445 8.8219 0.231445Z" fill="#3F90DF"/>
</svg>
