<svg width="40" height="40" viewBox="0 0 40 40" fill="none" xmlns="http://www.w3.org/2000/svg">
<path d="M33.2499 31.2494C33.2499 33.3205 31.571 34.9996 29.4999 34.9996C27.4288 34.9996 25.75 33.3205 25.75 31.2494C25.75 29.1786 27.4288 27.4995 29.4999 27.4995C31.571 27.4995 33.2499 29.1786 33.2499 31.2494V31.2494Z" fill="#F85566"/>
<path d="M29.4999 33.1248C27.7571 33.1248 26.3022 31.926 25.883 30.3125C25.8042 30.6143 25.75 30.9246 25.75 31.2499C25.75 33.318 27.4318 35 29.4999 35C31.5681 35 33.2499 33.318 33.2499 31.2499C33.2499 30.9246 33.1954 30.6143 33.1168 30.3125C32.6977 31.926 31.2428 33.1248 29.4999 33.1248Z" fill="#C84F61"/>
<path d="M18.2503 31.2499C18.2503 33.321 16.5715 35.0001 14.5004 35.0001C12.4293 35.0001 10.7505 33.321 10.7505 31.2499C10.7505 29.1791 12.4293 27.5 14.5004 27.5C16.5715 27.5 18.2503 29.1791 18.2503 31.2499V31.2499Z" fill="#35C9FC"/>
<path d="M29.5006 25.6248C27.95 25.6248 26.688 24.3631 26.688 22.8123V7.81256C26.688 6.26197 27.95 5 29.5006 5C31.0512 5 32.3131 6.26197 32.3131 7.81256V22.8123C32.3131 24.3631 31.0512 25.6248 29.5006 25.6248V25.6248Z" fill="#F85566"/>
<path d="M29.5006 23.7501C27.95 23.7501 26.688 22.4881 26.688 20.9375V22.8125C26.688 24.3633 27.95 25.625 29.5006 25.625C31.0512 25.625 32.3131 24.3633 32.3131 22.8125V20.9375C32.3131 22.4881 31.0512 23.7501 29.5006 23.7501V23.7501Z" fill="#C84F61"/>
<path d="M14.4999 25.6248C12.9493 25.6248 11.6875 24.3631 11.6875 22.8123V19.0624C11.6875 17.5118 12.9493 16.25 14.4999 16.25H16.3748C17.409 16.25 18.2498 15.409 18.2498 14.3748V13.4375C18.2498 11.8869 16.9881 10.6249 15.4375 10.6249C13.8869 10.6249 12.6249 11.8869 12.6249 13.4375C12.6249 14.988 11.3632 16.25 9.81234 16.25C8.26175 16.25 7 14.988 7 13.4375C7 8.78456 10.7846 5 15.4375 5C20.0901 5 23.8749 8.78456 23.8749 13.4375V14.3748C23.8749 18.1924 21.0061 21.3537 17.3124 21.8168V22.8123C17.3124 24.3631 16.0505 25.6248 14.4999 25.6248V25.6248Z" fill="#35C9FC"/>
<path d="M14.5004 33.1243C12.7576 33.1243 11.3027 31.9255 10.8835 30.312C10.8049 30.6138 10.7505 30.9241 10.7505 31.2494C10.7505 33.3175 12.4323 34.9995 14.5004 34.9995C16.5685 34.9995 18.2503 33.3175 18.2503 31.2494C18.2503 30.9241 18.1961 30.6138 18.1173 30.312C17.6982 31.9255 16.2433 33.1243 14.5004 33.1243Z" fill="#00ADFE"/>
<path d="M12.6249 13.4375C12.6249 11.8869 13.8869 10.625 15.4375 10.625C16.8117 10.625 17.9546 11.617 18.1974 12.9218C18.2293 12.786 18.2498 12.6453 18.2498 12.4999V11.5626C18.2498 10.012 16.988 8.75 15.4375 8.75C13.8869 8.75 12.6249 10.012 12.6249 11.5626C12.6249 13.1132 11.3631 14.3749 9.81233 14.3749C8.49911 14.3749 7.40205 13.4667 7.09362 12.2469C7.0385 12.6368 7 13.0325 7 13.4375C7 14.9881 8.26175 16.2501 9.81233 16.2501C11.3631 16.2501 12.6249 14.9881 12.6249 13.4375Z" fill="#00ADFE"/>
<path d="M17.3124 19.9418V20.9373C17.3124 22.4879 16.0504 23.7498 14.4998 23.7498C12.9492 23.7498 11.6875 22.4879 11.6875 20.9373V22.8122C11.6875 24.3631 12.9492 25.6248 14.4998 25.6248C16.0504 25.6248 17.3124 24.3631 17.3124 22.8122V21.8159C21.0061 21.3537 23.8749 18.1924 23.8749 14.3739V13.4374C23.8749 13.2855 23.8599 13.1374 23.8524 12.9873C23.6198 16.5828 20.8478 19.4992 17.3124 19.9418V19.9418Z" fill="#00ADFE"/>
</svg>
