<svg width="80" height="80" viewBox="0 0 80 80" fill="none" xmlns="http://www.w3.org/2000/svg">
<g clip-path="url(#clip0_1406_3108)">
<path d="M69.8838 19.2733C65.8292 14.1227 60.5569 9.06578 55.6503 4.75453C52.6558 2.14422 50.2045 -0.902031 38.3 0.251094C36.6339 0.412813 35.9033 1.49719 35.1125 2.89328L61.6888 25.5516C65.5908 28.8781 65.1122 35.0438 60.7436 37.7284L5.71094 71.5487C8.62156 76.5355 14.0723 80 20.4034 80C22.8269 80 30.9211 78.9541 37.9064 77.0014C58.1194 71.2987 74.3914 57.8222 76.4164 37.3145C76.9084 32.252 76.2064 27.3531 69.8838 19.2733Z" fill="#F6B47B"/>
<path d="M33.7117 68.684C57.6363 61.9343 68.0339 52.7421 69.5925 36.9589C69.9533 33.2453 69.2035 30.7137 63.5441 21.1128C60.0436 15.1743 57.6045 11.2934 53.2597 7.47559C48.4227 3.25965 46.4739 2.90449 35.1124 2.89355C34.518 3.94277 33.5744 5.8059 32.9177 7.98262C31.6327 12.2421 34.8528 16.5295 39.3019 16.5295H41.758C43.1753 16.5295 44.3738 15.709 44.9506 14.5545C45.3569 13.7414 46.4703 13.6342 47.0086 14.3667C49.963 18.3871 53.9945 24.2056 56.198 28.92C58.2013 33.2064 54.85 37.6006 49.9377 37.6006H48.831C41.4425 37.6006 34.4122 40.7843 29.5386 46.3373H22.8799C9.85221 46.3373 3.45752 53.5423 3.45752 63.2923C3.45752 66.2595 4.27549 69.089 5.7108 71.5486H17.1838C19.315 71.5489 27.0805 70.5376 33.7117 68.684Z" fill="#FDC88E"/>
<path d="M46.9763 12.8557L44.0993 11.6688C42.5659 11.0363 41.5351 9.64806 41.1795 8.02806C41.1042 7.68493 40.8831 7.39118 40.5734 7.22431C40.2584 7.05446 39.8848 7.03306 39.5523 7.16571C39.3827 7.23352 37.879 7.89087 37.0702 10.1659C36.8631 10.7485 37.1135 11.4168 37.6712 11.6841C38.3327 12.0015 39.1023 11.669 39.3376 10.9966C39.3982 10.8231 39.4638 10.667 39.5317 10.5271C40.0238 11.4601 40.7085 12.2785 41.5404 12.9284C42.2421 13.4763 43.0499 13.8723 43.8992 14.1398L47.7226 15.3446V13.9342C47.7076 13.4827 47.4404 13.0471 46.9763 12.8557Z" fill="#F6B47B"/>
<path d="M47.8583 34.1313C47.7111 34.1313 47.5614 34.1043 47.4163 34.0471C46.7959 33.8027 46.4908 33.102 46.7352 32.4815L49.4747 25.5238C49.7189 24.9034 50.4199 24.598 51.0403 24.8427C51.6606 25.0871 51.9658 25.7879 51.7214 26.4084L48.9819 33.366C48.7948 33.8413 48.3398 34.1313 47.8583 34.1313Z" fill="#D4CFC2"/>
<path d="M27.6108 42.763C27.4782 42.763 27.3433 42.7409 27.2111 42.6945L19.0799 39.8411C18.4507 39.6203 18.1197 38.9312 18.3403 38.302C18.561 37.673 19.2497 37.3419 19.8794 37.5625L28.0107 40.4159C28.6399 40.6367 28.9708 41.3258 28.7502 41.955C28.5758 42.4519 28.1092 42.763 27.6108 42.763Z" fill="#D4CFC2"/>
<path d="M36.73 36.3866C36.2841 36.3866 35.8555 36.1386 35.6455 35.7114L31.7983 27.8814C31.5043 27.283 31.7511 26.5595 32.3494 26.2655C32.9478 25.9717 33.6714 26.2183 33.9653 26.8166L37.8125 34.6466C38.1066 35.245 37.8597 35.9684 37.2614 36.2625C37.0903 36.3466 36.9088 36.3866 36.73 36.3866Z" fill="#D4CFC2"/>
</g>
<defs>
<clipPath id="clip0_1406_3108">
<rect width="80" height="80" fill="white"/>
</clipPath>
</defs>
</svg>
