<svg width="40" height="40" viewBox="0 0 40 40" fill="none" xmlns="http://www.w3.org/2000/svg">
<path d="M25.9443 26.8121L15.0663 31.2127L14.953 31.2586C13.6409 31.8029 12.1359 31.1814 11.5916 29.8687L5.19738 14.4677C4.65246 13.1556 5.27455 11.6506 6.5867 11.1063L16.3497 7.05286C17.6624 6.50794 19.1675 7.13003 19.7118 8.44153L20.4851 10.0996L25.0259 19.832L25.9443 26.8121Z" fill="#FCC938"/>
<path d="M25.9443 26.8119L15.0663 31.2125L14.6352 31.0827C13.2753 30.6725 12.505 29.2379 12.9153 27.8773L17.7316 11.9124C18.0965 10.7025 19.2721 9.95921 20.4851 10.0994L25.0259 19.8318L25.9443 26.8119Z" fill="#E2A91B"/>
<path d="M34.8898 15.349L30.0735 31.3145C29.6633 32.6744 28.228 33.4446 26.8681 33.0344L18.4271 30.4878L16.7476 29.9809C15.3871 29.5707 14.6174 28.1361 15.0277 26.7755L19.8439 10.8106C20.2542 9.45073 21.6888 8.68045 23.0487 9.09073L33.1698 12.1442C33.2623 12.1724 33.3523 12.2049 33.4392 12.2428C34.6289 12.7498 35.2719 14.0816 34.8898 15.349Z" fill="#23C45E"/>
</svg>
