<svg width="40" height="40" viewBox="0 0 40 40" fill="none" xmlns="http://www.w3.org/2000/svg">
<path d="M7.95857 32.0051L5.08788 15.7068C5.06016 15.5495 5.04288 15.3905 5.03616 15.2309C4.99349 13.3831 6.3203 11.787 8.14478 11.4913L13.6844 10.5137L13.5344 32.0051H7.95857Z" fill="#3F90DF"/>
<path d="M29.2793 31.2916C29.1832 31.6904 28.8606 31.9948 28.4569 32.0675L12.1534 34.9433C11.1258 35.1227 10.0707 34.8509 9.2577 34.1973C8.44468 33.5437 7.95249 32.5717 7.90688 31.5295C7.86614 29.7629 9.08245 28.2148 10.8086 27.8364L15.3758 29.1192H15.3707L11.2586 29.8485C10.8 29.9291 10.4017 30.2111 10.1732 30.6168C9.94481 31.0226 9.91033 31.5094 10.0793 31.9433C10.3719 32.6422 11.1149 33.0396 11.8586 32.895L24.3189 30.6968L29.2793 31.2916Z" fill="#163F67"/>
<path d="M15.3706 29.1191L11.2585 29.8485C10.7999 29.9291 10.4016 30.211 10.1731 30.6168C9.94472 31.0226 9.91024 31.5094 10.0792 31.9433C10.3718 32.6421 11.1148 33.0396 11.8585 32.895L24.3189 30.6967L15.3706 29.1191Z" fill="white"/>
<path d="M11.634 22.1575L14.5083 5.85715C14.6112 5.29685 15.1451 4.92311 15.7068 5.01819L31.8846 7.87077C33.7103 8.16672 35.0382 9.76388 34.9958 11.613C34.9887 11.7719 34.9714 11.9302 34.944 12.0868L32.0697 28.3872L11.634 22.1575Z" fill="#FF4E34"/>
<path d="M28.5024 10.4178C28.472 10.4178 28.4418 10.4152 28.4119 10.41L16.6958 8.34418C16.4314 8.27897 16.2629 8.01993 16.3104 7.75179C16.3579 7.48364 16.6051 7.29824 16.8758 7.3278L28.5913 9.39108C28.8556 9.43736 29.0406 9.67796 29.0174 9.94521C28.9942 10.2125 28.7706 10.4177 28.5024 10.4178Z" fill="#7E271D"/>
<path d="M26.0155 12.6034C25.9851 12.6035 25.9548 12.6007 25.925 12.5952L18.2843 11.2498C18.0094 11.1941 17.829 10.9294 17.8777 10.6531C17.9264 10.3769 18.1864 10.1898 18.4638 10.2314L26.105 11.5762C26.3707 11.6211 26.5575 11.8626 26.5341 12.1311C26.5107 12.3996 26.285 12.6052 26.0155 12.6034Z" fill="#7E271D"/>
<path d="M27.0953 14.9136L16.3962 13.0236C16.1148 12.9739 15.8464 13.1617 15.7967 13.4431L14.8967 18.5379C14.847 18.8193 15.0348 19.0877 15.3162 19.1374L26.0153 21.0274C26.2967 21.0771 26.5651 20.8893 26.6148 20.6079L27.5148 15.5131C27.5645 15.2317 27.3767 14.9633 27.0953 14.9136Z" fill="#ECF0F1"/>
<path d="M34.9947 11.6106C34.9886 11.7702 34.9713 11.9292 34.943 12.0865L32.0672 28.3847L28.0792 27.1692L30.3913 14.0623L30.9396 10.9692L31.4982 7.80371L31.8861 7.87095C33.7098 8.16813 35.0358 9.76336 34.9947 11.6106Z" fill="#C03A2B"/>
<path d="M29.0103 24.1692L12.831 21.3192C12.7712 21.3089 12.7106 21.3037 12.6499 21.3037C12.1138 21.3051 11.6676 21.7158 11.6218 22.2499C11.5761 22.7841 11.946 23.2647 12.4741 23.3572L28.7723 26.2278C29.2306 26.3108 29.6277 26.5944 29.8549 27.0008C30.0822 27.4073 30.1157 27.894 29.9465 28.3278C29.6555 29.0252 28.9136 29.421 28.1723 29.2744L11.9361 26.4141C11.8763 26.4038 11.8158 26.3986 11.7551 26.3985C11.218 26.3972 10.7692 26.8071 10.7221 27.3422C10.6749 27.8772 11.045 28.3593 11.5741 28.452L27.8775 31.3227C28.9044 31.5027 29.959 31.2318 30.772 30.5792C31.5851 29.9266 32.0777 28.9555 32.1241 27.9141C32.1647 26.0641 30.8365 24.4669 29.0103 24.1692Z" fill="#7E271E"/>
<path d="M29.9465 28.3276C29.6555 29.0249 28.9136 29.4208 28.1724 29.2742L11.9362 26.4138L12.4741 23.3569L28.7724 26.2276C29.2306 26.3106 29.6277 26.5941 29.8549 27.0006C30.0822 27.407 30.1158 27.8938 29.9465 28.3276Z" fill="white"/>
</svg>
