<svg width="80" height="80" viewBox="0 0 80 80" fill="none" xmlns="http://www.w3.org/2000/svg">
<g clip-path="url(#clip0_435_2072)">
<path d="M70.7364 24.6781L49.8393 22.7399L41.5384 3.46442C40.9571 2.11473 39.0435 2.11473 38.4624 3.46442L30.1615 22.7398L9.26441 24.6781C7.80113 24.8137 7.20988 26.6337 8.31379 27.6035L24.0807 41.4545L19.4665 61.9278C19.1433 63.3614 20.6916 64.4861 21.9551 63.7359L40.0004 53.0209L58.0458 63.7359C59.3094 64.4863 60.8573 63.3614 60.5344 61.9278L55.92 41.4545L71.687 27.6035C72.791 26.6337 72.1995 24.8137 70.7364 24.6781Z" fill="#FFDC64"/>
<path d="M18.6368 2.80006C19.7021 4.27975 22.709 10.6345 24.4281 14.3379C24.6984 14.9201 23.9679 15.446 23.5015 15.0049C20.5348 12.1999 15.4621 7.33242 14.3968 5.85257C13.5538 4.68179 13.8196 3.04928 14.9905 2.20631C16.1613 1.36334 17.7938 1.62928 18.6368 2.80006Z" fill="#FFF082"/>
<path d="M61.3633 2.80006C60.298 4.27975 57.2911 10.6345 55.572 14.3379C55.3017 14.9201 56.0322 15.446 56.4986 15.0049C59.4653 12.1999 64.5378 7.33226 65.6033 5.85257C66.4463 4.68179 66.1805 3.04928 65.0096 2.20631C63.8388 1.36334 62.2063 1.62928 61.3633 2.80006Z" fill="#FFF082"/>
<path d="M78.1977 46.1919C76.4643 45.6265 69.4963 44.6926 65.4458 44.1801C64.8091 44.0995 64.5301 44.9553 65.0918 45.2656C68.6657 47.2398 74.8443 50.5936 76.5777 51.1589C77.9493 51.6062 79.4238 50.857 79.8712 49.4853C80.3185 48.1136 79.5693 46.6392 78.1977 46.1919Z" fill="#FFF082"/>
<path d="M1.8029 46.1919C3.53634 45.6265 10.5043 44.6926 14.5548 44.1801C15.1915 44.0995 15.4706 44.9553 14.9089 45.2656C11.335 47.2398 5.15635 50.5936 3.4229 51.1589C2.05134 51.6062 0.576805 50.857 0.129461 49.4853C-0.317884 48.1136 0.431336 46.6392 1.8029 46.1919Z" fill="#FFF082"/>
<path d="M37.4688 75.6731C37.4688 73.8498 38.7414 66.9357 39.5102 62.9259C39.6309 62.2955 40.5311 62.2955 40.6519 62.9259C41.4206 66.9357 42.6933 73.8498 42.6933 75.6731C42.6933 77.1157 41.5238 78.2853 40.0811 78.2853C38.6383 78.2854 37.4688 77.1157 37.4688 75.6731Z" fill="#FFF082"/>
<path d="M44.5568 10.4738L41.5382 3.46442C40.957 2.11473 39.0434 2.11473 38.4623 3.46442L30.1613 22.7398L9.26441 24.678C7.80113 24.8137 7.20988 26.6337 8.31379 27.6035L24.0807 41.4545L19.4665 61.9278C19.1433 63.3614 20.6916 64.4861 21.9551 63.7359L24.3568 62.3098C28.2941 36.8223 39.3632 18.1126 44.5568 10.4738Z" fill="#FFC850"/>
</g>
<defs>
<clipPath id="clip0_435_2072">
<rect width="80" height="80" fill="white"/>
</clipPath>
</defs>
</svg>
