<svg width="80" height="80" viewBox="0 0 80 80" fill="none" xmlns="http://www.w3.org/2000/svg">
<path d="M40.0446 79.9996H39.9849C34.7495 79.9996 30.4902 75.7402 30.4902 70.5047V68.2861C30.4902 66.9917 31.5396 65.9424 32.8339 65.9424H47.1956C48.4899 65.9424 49.5393 66.9917 49.5393 68.2861V70.5047C49.5393 75.7403 45.2799 79.9996 40.0446 79.9996V79.9996Z" fill="#FFA81C"/>
<path d="M47.1965 65.9424H40.0156V79.9996H40.0455C45.2809 79.9996 49.5401 75.7402 49.5401 70.5047V68.2861C49.5401 66.9916 48.4908 65.9424 47.1965 65.9424V65.9424Z" fill="#FF9300"/>
<path d="M44.6998 14.6494H35.33C34.0357 14.6494 32.9863 13.6001 32.9863 12.3058V7.03047C32.9863 3.15482 36.1393 0.00195312 40.0148 0.00195312C43.8903 0.00195312 47.0434 3.15497 47.0434 7.03047V12.3058C47.0435 13.6001 45.9942 14.6494 44.6998 14.6494V14.6494Z" fill="#FFA81C"/>
<path d="M44.7005 14.6494C45.9948 14.6494 47.0441 13.6001 47.0441 12.3058V7.03047C47.0441 3.15482 43.8911 0.00195312 40.0156 0.00195312V14.6494H44.7005Z" fill="#FF9300"/>
<path d="M64.8507 70.6298H15.1809C13.1524 70.6298 11.502 68.9794 11.502 66.9509V63.6C11.502 59.9297 12.8533 56.4051 15.3071 53.6755C16.9861 51.8078 17.9108 49.3961 17.9108 46.8848V31.7014C17.9108 19.5128 27.8269 9.59668 40.0155 9.59668C52.2042 9.59668 62.1203 19.5128 62.1203 31.7014V46.8848C62.1203 49.3961 63.0449 51.8078 64.7239 53.6754C67.1779 56.405 68.5293 59.9295 68.5293 63.5999V66.9507C68.5294 68.9794 66.8792 70.6298 64.8507 70.6298V70.6298Z" fill="#FFCF2C"/>
<path d="M64.8504 70.6297C66.879 70.6297 68.5294 68.9792 68.5294 66.9507V63.5999C68.5294 59.9295 67.178 56.405 64.724 53.6754C63.045 51.8078 62.1204 49.3961 62.1204 46.8848V31.7014C62.1204 19.5128 52.2043 9.59668 40.0156 9.59668V70.6297H64.8504Z" fill="#FFC12E"/>
<path d="M11.502 63.5999V66.9507C11.502 68.9793 13.1524 70.6297 15.1809 70.6297H64.8505C66.879 70.6297 68.5294 68.9793 68.5294 66.9507V63.5999C68.5294 61.9925 68.2701 60.4132 67.7726 58.916H12.2588C11.7613 60.4132 11.502 61.9925 11.502 63.5999V63.5999Z" fill="#FFF566"/>
<path d="M40.0156 58.9162V70.6297H64.8504C66.879 70.6297 68.5294 68.9793 68.5294 66.9508V63.5999C68.5294 61.9925 68.27 60.4132 67.7725 58.916H40.0156V58.9162Z" fill="#FFE645"/>
<path d="M2.34646 25.8856C2.18256 25.8856 2.01632 25.8684 1.84961 25.8323C0.584335 25.5592 -0.219858 24.3121 0.0532584 23.0468C1.93007 14.3535 6.71975 6.36768 13.5398 0.560217C14.5254 -0.278974 16.0046 -0.160072 16.8436 0.825208C17.6828 1.8108 17.5642 3.28981 16.5786 4.129C10.5376 9.27305 6.29586 16.3428 4.63498 24.036C4.39796 25.1346 3.42643 25.8856 2.34646 25.8856V25.8856Z" fill="#FF8B6E"/>
<path d="M77.654 25.8855C76.5739 25.8855 75.6027 25.1346 75.3655 24.036C73.7046 16.3428 69.4629 9.27306 63.422 4.12917C62.4364 3.28998 62.3178 1.81081 63.157 0.825376C63.996 -0.160216 65.475 -0.278962 66.4608 0.560385C73.2809 6.36754 78.0704 14.3535 79.9472 23.0468C80.2203 24.3121 79.4161 25.5592 78.1509 25.8324C77.9843 25.8681 77.8179 25.8855 77.654 25.8855V25.8855Z" fill="#FF674F"/>
<path d="M11.3564 28.6268C11.2128 28.6268 11.0672 28.6135 10.9209 28.586C9.64877 28.347 8.81146 27.1219 9.05051 25.8499C10.3369 19.0048 13.9443 12.6819 19.2078 8.04595C20.179 7.19019 21.6601 7.28441 22.5155 8.25563C23.3711 9.227 23.2771 10.7079 22.3059 11.5633C17.823 15.5118 14.7514 20.8929 13.6571 26.7155C13.4455 27.8415 12.4616 28.6268 11.3564 28.6268V28.6268Z" fill="#FF8B6E"/>
<path d="M68.6422 28.6275C67.5368 28.6275 66.5531 27.8422 66.3415 26.7163C65.2472 20.8939 62.1759 15.5126 57.6931 11.5643C56.7217 10.7087 56.6279 9.22785 57.4834 8.25648C58.339 7.28526 59.8199 7.19136 60.7912 8.0468C66.0545 12.6827 69.6617 19.0055 70.9481 25.8504C71.1871 27.1226 70.3497 28.3475 69.0775 28.5866C68.9316 28.6142 68.7858 28.6275 68.6422 28.6275V28.6275Z" fill="#FF674F"/>
</svg>
